<svg width="685" height="645" viewBox="0 0 685 645" fill="none" xmlns="http://www.w3.org/2000/svg">
<path opacity="0.0344828" d="M147.158 304.652C124.855 295.673 128.28 263.087 151.962 258.942L232.642 244.82C246.41 242.411 255.781 229.512 253.819 215.673L242.318 134.578C238.942 110.774 268.874 97.4469 284.306 115.884L336.875 178.694C345.846 189.412 361.703 191.079 372.706 182.46L437.185 131.952C456.113 117.126 482.621 136.385 474.369 158.968L446.259 235.9C441.462 249.027 447.947 263.593 460.912 268.813L536.893 299.4C559.197 308.379 555.772 340.964 532.089 345.11L451.409 359.231C437.642 361.641 428.27 374.54 430.233 388.378L441.734 469.473C445.11 493.278 415.177 506.605 399.746 488.167L347.176 425.357C338.206 414.639 322.349 412.973 311.346 421.591L246.866 472.099C227.939 486.925 201.431 467.666 209.682 445.084L237.793 368.152C242.59 355.024 236.105 340.458 223.139 335.239L147.158 304.652Z" stroke="white" stroke-width="2"/>
<path opacity="0.0689655" d="M150.66 294.983C128.857 284.85 133.983 252.488 157.85 249.588L236.8 239.995C250.674 238.309 260.708 225.918 259.472 211.996L252.441 132.777C250.316 108.828 280.905 97.0862 295.35 116.306L343.133 179.882C351.53 191.055 367.278 193.549 378.717 185.518L443.807 139.819C463.485 126.004 488.948 146.624 479.526 168.744L448.359 241.913C442.882 254.771 448.596 269.656 461.27 275.547L533.391 309.068C555.194 319.201 550.069 351.563 526.201 354.463L447.252 364.057C433.377 365.742 423.343 378.133 424.579 392.055L431.61 471.274C433.735 495.223 403.146 506.965 388.701 487.745L340.918 424.169C332.521 412.997 316.773 410.502 305.334 418.534L240.244 464.232C220.567 478.047 195.103 457.427 204.525 435.308L235.692 362.139C241.17 349.28 235.456 334.395 222.781 328.504L150.66 294.983Z" stroke="white" stroke-width="2"/>
<path opacity="0.103448" d="M154.63 285.688C133.388 274.427 140.2 242.378 164.186 240.731L241.159 235.445C255.103 234.488 265.772 222.639 265.266 208.672L262.477 131.568C261.608 107.541 292.769 97.4155 306.189 117.365L349.253 181.383C357.054 192.98 372.649 196.295 384.493 188.873L449.872 147.906C470.246 135.139 494.595 157.063 484.028 178.66L450.119 247.963C443.976 260.518 448.903 275.681 461.252 282.228L529.421 318.364C550.663 329.624 543.851 361.674 519.865 363.321L442.892 368.606C428.948 369.564 418.279 381.412 418.785 395.38L421.574 472.484C422.443 496.511 391.282 506.636 377.862 486.687L334.798 422.669C326.997 411.072 311.402 407.757 299.558 415.178L234.179 456.146C213.805 468.912 189.456 446.988 200.023 425.392L233.932 356.088C240.075 343.534 235.148 328.37 222.799 321.824L154.63 285.688Z" stroke="white" stroke-width="2"/>
<path opacity="0.137931" d="M159.04 276.786C138.416 264.429 146.896 232.78 170.936 232.391L245.705 231.18C259.679 230.954 270.954 219.679 271.18 205.705L272.391 130.936C272.78 106.896 304.429 98.4161 316.786 119.04L355.219 183.186C362.403 195.176 377.804 199.302 390.019 192.511L455.376 156.176C476.39 144.493 499.559 167.661 487.876 188.675L451.541 254.032C444.749 266.248 448.876 281.649 460.865 288.832L525.011 327.265C545.635 339.622 537.155 371.271 513.116 371.661L438.347 372.872C424.372 373.098 413.098 384.372 412.872 398.347L411.66 473.116C411.271 497.155 379.622 505.636 367.265 485.011L328.832 420.865C321.649 408.876 306.248 404.749 294.032 411.541L228.675 447.876C207.661 459.559 184.493 436.39 196.175 415.377L232.511 350.02C239.302 337.804 235.176 322.403 223.186 315.22L159.04 276.786Z" stroke="white" stroke-width="2"/>
<path opacity="0.172414" d="M163.859 268.3C143.91 254.88 154.035 223.718 178.062 224.588L250.417 227.205C264.384 227.711 276.233 217.042 277.19 203.098L282.15 130.866C283.797 106.88 315.846 100.067 327.107 121.31L361.018 185.28C367.564 197.629 382.728 202.556 395.282 196.413L460.317 164.592C481.913 154.026 503.837 178.375 491.071 198.748L452.627 260.101C445.205 271.944 448.52 287.54 460.117 295.341L520.192 335.753C540.141 349.172 530.016 380.334 505.989 379.464L433.634 376.847C419.667 376.341 407.818 387.01 406.861 400.954L401.901 473.186C400.254 497.172 368.205 503.985 356.944 482.742L323.033 418.772C316.487 406.423 301.323 401.496 288.769 407.639L223.734 439.46C202.138 450.026 180.214 425.677 192.98 405.304L231.424 343.951C238.846 332.108 235.531 316.512 223.934 308.711L163.859 268.3Z" stroke="white" stroke-width="2"/>
<path opacity="0.206897" d="M169.056 260.245C149.836 245.799 161.578 215.21 185.527 217.336L255.279 223.527C269.201 224.762 281.592 214.728 283.278 200.854L291.724 131.339C294.624 107.472 326.986 102.346 337.12 124.149L366.634 187.652C372.525 200.326 387.41 206.04 400.269 200.563L464.694 173.12C486.814 163.698 507.434 189.162 493.619 208.839L453.381 266.151C445.35 277.59 447.844 293.337 459.017 301.735L514.995 343.807C534.215 358.252 522.473 388.841 498.524 386.716L428.772 380.525C414.85 379.289 402.46 389.323 400.774 403.198L392.327 472.713C389.427 496.58 357.065 501.706 346.931 479.903L317.417 416.4C311.526 403.726 296.641 398.012 283.782 403.489L219.357 430.932C197.237 440.354 176.618 414.89 190.433 395.213L230.67 337.901C238.701 326.462 236.207 310.715 225.034 302.317L169.056 260.245Z" stroke="white" stroke-width="2"/>
<path opacity="0.241379" d="M174.599 252.638C156.161 237.207 169.488 207.274 193.293 210.65L260.273 220.149C274.111 222.112 287.01 212.74 289.42 198.973L301.083 132.336C305.228 108.653 337.814 105.228 346.793 127.532L372.056 190.287C377.276 203.253 391.841 209.738 404.969 204.941L468.51 181.724C491.093 173.472 510.352 199.98 495.526 218.907L453.809 272.164C445.19 283.167 446.857 299.023 457.575 307.994L509.452 351.413C527.89 366.845 514.563 396.777 490.758 393.401L423.779 383.902C409.94 381.94 397.041 391.311 394.632 405.079L382.968 471.716C378.823 495.398 346.237 498.823 337.258 476.52L311.995 413.764C306.776 400.799 292.21 394.314 279.082 399.11L215.541 422.328C192.959 430.579 173.7 404.072 188.526 385.144L230.242 331.888C238.861 320.885 237.194 305.028 226.476 296.057L174.599 252.638Z" stroke="white" stroke-width="2"/>
<path opacity="0.275862" d="M180.455 245.494C162.851 229.119 177.726 199.925 201.321 204.542L265.38 217.077C279.097 219.761 292.468 211.077 295.595 197.455L310.199 133.836C315.578 110.402 348.298 108.687 356.097 131.43L377.271 193.175C381.805 206.396 396.011 213.634 409.372 209.531L471.77 190.368C494.753 183.31 512.598 210.789 496.802 228.915L453.917 278.124C444.734 288.661 445.568 304.583 455.802 314.102L503.596 358.559C521.201 374.934 506.326 404.128 482.73 399.511L418.671 386.975C404.955 384.291 391.583 392.975 388.456 406.597L373.852 470.217C368.473 493.65 335.753 495.365 327.954 472.622L306.78 410.878C302.247 397.657 288.04 390.418 274.68 394.522L212.282 413.684C189.298 420.743 171.453 393.263 187.249 375.138L230.135 325.929C239.318 315.392 238.483 299.47 228.249 289.951L180.455 245.494Z" stroke="white" stroke-width="2"/>
<path opacity="0.310345" d="M186.592 238.822C169.869 221.548 186.251 193.173 209.573 199.018L270.583 214.311C284.14 217.71 297.948 209.738 301.784 196.298L319.045 135.814C325.643 112.695 358.408 112.695 365.006 135.814L382.267 196.298C386.103 209.738 399.911 217.71 413.468 214.311L474.479 199.018C497.8 193.173 514.183 221.548 497.459 238.822L453.71 284.012C443.988 294.054 443.988 309.998 453.71 320.04L497.459 365.23C514.183 382.504 497.8 410.879 474.479 405.033L413.468 389.74C399.911 386.342 386.103 394.314 382.267 407.754L365.006 468.237C358.408 491.357 325.643 491.357 319.045 468.237L301.784 407.754C297.948 394.314 284.14 386.342 270.583 389.741L209.573 405.033C186.251 410.879 169.869 382.504 186.592 365.23L230.341 320.04C240.063 309.998 240.063 294.054 230.341 284.012L186.592 238.822Z" stroke="white" stroke-width="2"/>
<path opacity="0.344828" d="M192.976 232.633C177.18 214.508 195.025 187.029 218.009 194.087L275.864 211.854C289.224 215.958 303.431 208.719 307.964 195.498L327.597 138.249C335.396 115.506 368.116 117.221 373.495 140.655L387.035 199.642C390.162 213.265 403.534 221.948 417.251 219.264L476.646 207.642C500.241 203.024 515.116 232.218 497.512 248.593L453.197 289.814C442.963 299.333 442.129 315.255 451.312 325.792L491.075 371.418C506.871 389.544 489.026 417.023 466.043 409.965L408.188 392.197C394.827 388.094 380.62 395.333 376.087 408.553L356.455 465.803C348.656 488.545 315.935 486.831 310.556 463.397L297.016 404.409C293.889 390.787 280.517 382.103 266.801 384.787L207.405 396.41C183.81 401.027 168.935 371.833 186.539 355.458L230.854 314.238C241.088 304.719 241.922 288.797 232.739 278.26L192.976 232.633Z" stroke="white" stroke-width="2"/>
<path opacity="0.37931" d="M199.574 226.935C184.748 208.007 204.007 181.5 226.59 189.751L281.204 209.707C294.332 214.504 308.897 208.019 314.117 195.053L335.831 141.114C344.809 118.81 377.395 122.235 381.54 145.918L391.565 203.193C393.975 216.961 406.874 226.332 420.712 224.37L478.282 216.205C502.087 212.829 515.413 242.762 496.976 258.193L452.387 295.512C441.669 304.483 440.002 320.34 448.621 331.343L484.477 377.117C499.303 396.044 480.044 422.552 457.461 414.301L402.847 394.345C389.719 389.548 375.154 396.033 369.934 408.999L348.22 462.938C339.242 485.241 306.656 481.816 302.511 458.134L292.486 400.858C290.076 387.091 277.177 377.719 263.339 379.682L205.769 387.847C181.964 391.223 168.638 361.29 187.075 345.859L231.664 308.539C242.382 299.569 244.049 283.712 235.43 272.709L199.574 226.935Z" stroke="white" stroke-width="2"/>
<path opacity="0.413793" d="M206.353 221.731C192.538 202.054 213.158 176.59 235.277 186.012L286.586 207.868C299.445 213.345 314.33 207.631 320.221 194.957L343.727 144.383C353.86 122.58 386.222 127.705 389.122 151.573L395.849 206.935C397.535 220.81 409.926 230.844 423.848 229.608L479.399 224.678C503.348 222.552 515.09 253.141 495.87 267.586L451.289 301.093C440.116 309.491 437.622 325.238 445.653 336.677L477.698 382.321C491.513 401.998 470.894 427.462 448.774 418.04L397.465 396.184C384.606 390.707 369.721 396.421 363.83 409.095L340.325 459.669C330.191 481.472 297.829 476.347 294.929 452.479L288.202 397.117C286.516 383.242 274.125 373.208 260.203 374.444L204.652 379.374C180.703 381.5 168.961 350.911 188.181 336.466L232.763 302.959C243.935 294.561 246.43 278.814 238.399 267.375L206.353 221.731Z" stroke="white" stroke-width="2"/>
<path opacity="0.448276" d="M213.279 217.025C200.512 196.652 222.437 172.302 244.033 182.869L291.993 206.336C304.548 212.478 319.711 207.551 326.258 195.203L351.265 148.027C362.526 126.785 394.575 133.597 396.222 157.583L399.88 210.851C400.837 224.795 412.686 235.464 426.653 234.959L480.012 233.028C504.039 232.159 514.164 263.321 494.215 276.74L449.912 306.542C438.315 314.343 435 329.938 442.422 341.782L470.773 387.027C483.539 407.4 461.615 431.75 440.019 421.183L392.058 397.716C379.504 391.574 364.34 396.501 357.794 408.849L332.786 456.025C321.526 477.267 289.476 470.455 287.829 446.469L284.172 393.201C283.214 379.257 271.366 368.588 257.398 369.093L204.039 371.024C180.012 371.893 169.887 340.731 189.837 327.312L234.139 297.51C245.736 289.709 249.051 274.114 241.63 262.27L213.279 217.025Z" stroke="white" stroke-width="2"/>
<path opacity="0.482759" d="M220.318 212.818C208.635 191.804 231.804 168.636 252.817 180.318L297.407 205.108C309.623 211.899 325.024 207.773 332.207 195.783L358.428 152.02C370.785 131.396 402.434 139.876 402.824 163.915L403.65 214.926C403.876 228.901 415.15 240.175 429.125 240.402L480.136 241.228C504.176 241.617 512.656 273.266 492.032 285.623L448.268 311.844C436.279 319.028 432.152 334.428 438.944 346.644L463.733 391.234C475.416 412.248 452.247 435.416 431.234 423.734L386.644 398.944C374.428 392.152 359.027 396.279 351.844 408.268L325.623 452.032C313.266 472.656 281.617 464.176 281.228 440.136L280.401 389.125C280.175 375.151 268.901 363.877 254.926 363.65L203.915 362.824C179.876 362.434 171.395 330.786 192.02 318.429L235.783 292.208C247.772 285.024 251.899 269.623 245.108 257.408L220.318 212.818Z" stroke="white" stroke-width="2"/>
<path opacity="0.517241" d="M227.438 209.108C216.871 187.512 241.221 165.587 261.594 178.354L302.812 204.182C314.656 211.603 330.251 208.288 338.052 196.691L365.202 156.331C378.621 136.382 409.783 146.507 408.913 170.534L407.155 219.144C406.65 233.111 417.318 244.96 431.262 245.917L479.789 249.25C503.776 250.897 510.588 282.946 489.345 294.207L446.369 316.988C434.02 323.535 429.093 338.698 435.235 351.253L456.613 394.945C467.18 416.541 442.831 438.465 422.457 425.699L381.239 399.871C369.396 392.449 353.8 395.764 345.999 407.361L318.85 447.721C305.43 467.67 274.269 457.545 275.138 433.518L276.897 384.909C277.402 370.941 266.733 359.092 252.79 358.135L204.262 354.803C180.276 353.156 173.464 321.107 194.706 309.846L237.683 287.064C250.032 280.518 254.959 265.354 248.816 252.8L227.438 209.108Z" stroke="white" stroke-width="2"/>
<path opacity="0.551724" d="M234.607 205.891C225.185 183.771 250.648 163.151 270.326 176.966L308.191 203.551C319.629 211.582 335.377 209.088 343.775 197.915L371.571 160.931C386.017 141.711 416.606 153.453 414.48 177.402L410.39 223.486C409.154 237.408 419.188 249.799 433.063 251.485L478.99 257.065C502.858 259.965 507.983 292.327 486.18 302.461L444.225 321.961C431.551 327.852 425.837 342.737 431.314 355.595L449.445 398.16C458.867 420.28 433.403 440.9 413.726 427.085L375.861 400.5C364.422 392.469 348.674 394.963 340.277 406.136L312.48 443.12C298.035 462.34 267.446 450.598 269.572 426.649L273.662 380.565C274.897 366.643 264.863 354.252 250.989 352.566L205.061 346.986C181.194 344.086 176.068 311.724 197.871 301.59L239.827 282.09C252.501 276.199 258.215 261.314 252.738 248.456L234.607 205.891Z" stroke="white" stroke-width="2"/>
<path opacity="0.586207" d="M241.792 203.163C233.541 180.581 260.048 161.322 278.976 176.148L313.527 203.212C324.53 211.831 340.387 210.164 349.357 199.446L377.526 165.79C392.958 147.353 422.89 160.68 419.514 184.484L413.351 227.939C411.389 241.777 420.761 254.676 434.528 257.085L477.76 264.652C501.443 268.798 504.868 301.384 482.564 310.362L441.85 326.752C428.885 331.972 422.4 346.537 427.196 359.665L442.259 400.889C450.511 423.471 424.003 442.73 405.076 427.904L370.524 400.84C359.522 392.221 343.665 393.888 334.694 404.606L306.525 438.262C291.094 456.699 261.161 443.373 264.537 419.568L270.7 376.114C272.663 362.275 263.291 349.376 249.523 346.967L206.291 339.4C182.609 335.254 179.184 302.669 201.487 293.69L242.201 277.3C255.167 272.08 261.652 257.515 256.855 244.387L241.792 203.163Z" stroke="white" stroke-width="2"/>
<path opacity="0.62069" d="M248.963 200.917C241.905 177.933 269.384 160.088 287.51 175.884L318.806 203.159C329.342 212.341 345.265 211.507 354.784 201.273L383.058 170.877C399.433 153.272 428.627 168.147 424.01 191.743L416.037 232.483C413.353 246.2 422.037 259.571 435.659 262.698L476.12 271.986C499.554 277.365 501.268 310.085 478.526 317.884L439.257 331.351C426.036 335.884 418.798 350.091 422.901 363.451L435.088 403.135C442.146 426.119 414.667 443.964 396.542 428.168L365.246 400.893C354.709 391.711 338.787 392.545 329.267 402.779L300.994 433.175C284.619 450.78 255.424 435.904 260.042 412.309L268.014 371.569C270.698 357.852 262.014 344.48 248.392 341.353L207.931 332.066C184.498 326.687 182.783 293.966 205.526 286.167L244.794 272.701C258.015 268.168 265.253 253.961 261.15 240.6L248.963 200.917Z" stroke="white" stroke-width="2"/>
<path opacity="0.655172" d="M256.089 199.141C250.244 175.82 278.619 159.437 295.893 176.161L324.012 203.383C334.053 213.104 349.998 213.104 360.039 203.383L388.158 176.161C405.432 159.437 433.808 175.82 427.962 199.141L418.446 237.104C415.048 250.661 423.02 264.469 436.46 268.305L474.094 279.045C497.214 285.643 497.214 318.408 474.094 325.006L436.46 335.747C423.02 339.583 415.048 353.39 418.446 366.948L427.962 404.91C433.808 428.232 405.432 444.614 388.158 427.891L360.039 400.669C349.998 390.947 334.053 390.947 324.012 400.669L295.893 427.891C278.619 444.614 250.244 428.232 256.089 404.91L265.605 366.948C269.003 353.39 261.031 339.583 247.591 335.747L209.957 325.006C186.837 318.408 186.837 285.643 209.957 279.045L247.591 268.305C261.031 264.469 269.003 250.661 265.605 237.104L256.089 199.141Z" stroke="white" stroke-width="2"/>
<path opacity="0.689655" d="M263.142 197.82C258.525 174.225 287.719 159.35 304.094 176.954L329.131 203.871C338.65 214.105 354.572 214.939 365.109 205.757L392.823 181.604C410.948 165.808 438.427 183.653 431.369 206.637L420.577 241.778C416.474 255.139 423.712 269.345 436.933 273.879L471.707 285.803C494.449 293.602 492.734 326.323 469.301 331.702L433.472 339.926C419.85 343.053 411.166 356.425 413.85 370.141L420.91 406.218C425.527 429.814 396.333 444.689 379.958 427.084L354.92 400.167C345.401 389.934 329.479 389.099 318.942 398.282L291.229 422.434C273.103 438.23 245.624 420.385 252.682 397.402L263.474 362.261C267.577 348.9 260.339 334.694 247.118 330.16L212.345 318.235C189.602 310.436 191.317 277.716 214.75 272.337L250.579 264.112C264.202 260.985 272.886 247.614 270.201 233.897L263.142 197.82Z" stroke="white" stroke-width="2"/>
<path opacity="0.724138" d="M270.092 196.954C266.716 173.149 296.648 159.822 312.08 178.26L334.149 204.628C343.119 215.346 358.976 217.012 369.979 208.394L397.048 187.19C415.976 172.364 442.483 191.623 434.232 214.206L422.431 246.502C417.634 259.63 424.119 274.196 437.085 279.415L468.982 292.256C491.285 301.234 487.86 333.82 464.178 337.965L430.308 343.894C416.54 346.303 407.169 359.202 409.131 373.041L413.959 407.085C417.335 430.89 387.403 444.216 371.971 425.779L349.902 399.411C340.932 388.693 325.075 387.026 314.072 395.645L287.003 416.848C268.076 431.675 241.568 412.416 249.82 389.833L261.62 357.537C266.417 344.409 259.932 329.843 246.967 324.624L215.069 311.783C192.766 302.804 196.191 270.219 219.874 266.073L253.744 260.145C267.511 257.735 276.883 244.836 274.92 230.998L270.092 196.954Z" stroke="white" stroke-width="2"/>
<path opacity="0.758621" d="M276.913 196.521C274.787 172.573 305.376 160.831 319.821 180.05L339.053 205.638C347.45 216.81 363.198 219.305 374.637 211.274L400.834 192.881C420.511 179.066 445.974 199.686 436.552 221.806L424.009 251.254C418.531 264.113 424.245 278.998 436.92 284.889L465.946 298.38C487.749 308.513 482.624 340.875 458.757 343.775L426.981 347.636C413.107 349.322 403.073 361.713 404.309 375.635L407.138 407.519C409.264 431.467 378.675 443.209 364.23 423.99L344.998 398.402C336.601 387.229 320.853 384.735 309.414 392.766L283.217 411.159C263.54 424.974 238.077 404.354 247.499 382.234L260.042 352.786C265.52 339.927 259.806 325.042 247.131 319.151L218.105 305.66C196.302 295.526 201.427 263.165 225.295 260.264L257.07 256.403C270.944 254.718 280.978 242.327 279.743 228.405L276.913 196.521Z" stroke="white" stroke-width="2"/>
<path opacity="0.793103" d="M283.579 196.505C282.709 172.478 313.871 162.353 327.291 182.302L343.83 206.89C351.631 218.486 367.227 221.801 379.07 214.38L404.181 198.646C424.554 185.879 448.903 207.803 438.337 229.4L425.313 256.017C419.17 268.572 424.097 283.735 436.446 290.281L462.628 304.16C483.871 315.421 477.058 347.47 453.072 349.117L423.509 351.147C409.565 352.105 398.896 363.953 399.402 377.921L400.473 407.534C401.342 431.561 370.181 441.687 356.761 421.737L340.221 397.15C332.42 385.553 316.825 382.238 304.981 389.659L279.871 405.394C259.497 418.16 235.148 396.236 245.715 374.64L258.739 348.022C264.881 335.468 259.954 320.304 247.605 313.758L221.424 299.879C200.181 288.618 206.993 256.569 230.98 254.922L260.543 252.892C274.487 251.935 285.155 240.086 284.65 226.118L283.579 196.505Z" stroke="white" stroke-width="2"/>
<path opacity="0.827586" d="M290.065 196.888C290.454 172.849 322.103 164.369 334.46 184.993L348.469 208.374C355.652 220.363 371.053 224.49 383.269 217.699L407.091 204.454C428.105 192.772 451.274 215.94 439.591 236.954L426.347 260.777C419.555 272.992 423.682 288.393 435.671 295.577L459.052 309.585C479.677 321.943 471.196 353.591 447.157 353.981L419.904 354.422C405.929 354.649 394.655 365.923 394.428 379.898L393.987 407.151C393.597 431.19 361.949 439.671 349.592 419.046L335.583 395.665C328.399 383.676 312.998 379.549 300.783 386.341L276.96 399.585C255.946 411.267 232.778 388.099 244.46 367.085L257.705 343.263C264.496 331.047 260.369 315.646 248.38 308.463L224.999 294.454C204.375 282.097 212.855 250.448 236.895 250.058L264.148 249.617C278.123 249.391 289.397 238.116 289.623 224.142L290.065 196.888Z" stroke="white" stroke-width="2"/>
<path opacity="0.862069" d="M296.348 197.653C297.995 173.667 330.044 166.854 341.305 188.097L352.958 210.08C359.504 222.429 374.668 227.356 387.222 221.213L409.571 210.278C431.167 199.711 453.091 224.061 440.325 244.434L427.114 265.517C419.693 277.361 423.008 292.957 434.604 300.758L455.249 314.645C475.198 328.064 465.073 359.226 441.046 358.357L416.182 357.457C402.214 356.952 390.365 367.62 389.408 381.564L387.704 406.386C386.057 430.373 354.007 437.185 342.747 415.942L331.093 393.959C324.547 381.611 309.384 376.684 296.829 382.826L274.48 393.761C252.884 404.328 230.96 379.979 243.726 359.605L256.937 338.522C264.359 326.678 261.044 311.083 249.447 303.282L228.802 289.395C208.853 275.975 218.978 244.813 243.005 245.683L267.87 246.582C281.837 247.088 293.686 236.419 294.643 222.475L296.348 197.653Z" stroke="white" stroke-width="2"/>
<path opacity="0.896552" d="M302.407 198.777C305.307 174.91 337.669 169.784 347.802 191.587L357.287 211.995C363.178 224.67 378.063 230.384 390.922 224.906L411.626 216.087C433.746 206.665 454.366 232.129 440.551 251.806L427.62 270.224C419.589 281.663 422.083 297.411 433.256 305.808L451.246 319.329C470.465 333.775 458.723 364.364 434.774 362.238L412.358 360.248C398.436 359.013 386.045 369.047 384.359 382.921L381.645 405.262C378.745 429.129 346.383 434.254 336.249 412.451L326.764 392.044C320.873 379.369 305.988 373.655 293.129 379.132L272.425 387.952C250.305 397.374 229.685 371.91 243.501 352.233L256.432 333.815C264.463 322.376 261.969 306.628 250.796 298.23L232.806 284.71C213.586 270.264 225.328 239.675 249.277 241.801L271.693 243.79C285.615 245.026 298.006 234.992 299.692 221.118L302.407 198.777Z" stroke="white" stroke-width="2"/>
<path opacity="0.931035" d="M308.221 200.241C312.366 176.558 344.952 173.134 353.931 195.437L361.447 214.109C366.667 227.075 381.233 233.56 394.36 228.763L413.266 221.855C435.849 213.603 455.108 240.111 440.281 259.038L427.869 274.884C419.251 285.887 420.917 301.744 431.635 310.714L447.071 323.633C465.508 339.065 452.181 368.997 428.376 365.621L408.448 362.795C394.609 360.832 381.71 370.204 379.301 383.971L375.83 403.798C371.685 427.481 339.099 430.906 330.121 408.603L322.604 389.93C317.384 376.965 302.819 370.48 289.691 375.277L270.785 382.185C248.203 390.436 228.944 363.929 243.77 345.001L256.182 329.155C264.801 318.152 263.134 302.296 252.416 293.325L236.981 280.406C218.543 264.975 231.87 235.042 255.675 238.418L275.604 241.245C289.442 243.207 302.341 233.836 304.751 220.068L308.221 200.241Z" stroke="white" stroke-width="2"/>
<path opacity="0.965517" d="M313.773 202.021C319.152 178.588 351.872 176.873 359.671 199.616L365.43 216.408C369.963 229.629 384.17 236.868 397.53 232.765L414.501 227.553C437.484 220.495 455.329 247.974 439.533 266.099L427.869 279.483C418.687 290.019 419.521 305.942 429.755 315.461L442.753 327.552C460.358 343.927 445.483 373.121 421.887 368.503L404.466 365.094C390.749 362.41 377.377 371.094 374.25 384.716L370.279 402.019C364.9 425.452 332.179 427.167 324.38 404.424L318.622 387.632C314.088 374.411 299.882 367.172 286.521 371.275L269.551 376.487C246.567 383.545 228.722 356.066 244.518 337.941L256.182 324.557C265.365 314.021 264.53 298.098 254.296 288.579L241.298 276.488C223.693 260.113 238.569 230.919 262.164 235.537L279.586 238.946C293.302 241.63 306.674 232.946 309.801 219.324L313.773 202.021Z" stroke="white" stroke-width="2"/>
<path d="M319.045 204.094C325.643 180.974 358.408 180.974 365.006 204.093L369.226 218.879C373.062 232.319 386.87 240.291 400.427 236.893L415.342 233.155C438.663 227.309 455.046 255.684 438.322 272.958L427.627 284.006C417.906 294.047 417.906 309.991 427.627 320.033L438.322 331.081C455.046 348.355 438.663 376.73 415.342 370.884L400.427 367.146C386.87 363.747 373.062 371.719 369.226 385.159L365.006 399.945C358.408 423.065 325.643 423.065 319.045 399.945L314.825 385.159C310.99 371.719 297.182 363.747 283.624 367.146L268.71 370.884C245.388 376.73 229.006 348.355 245.729 331.081L256.424 320.033C266.146 309.991 266.146 294.047 256.424 284.006L245.729 272.958C229.006 255.684 245.388 227.309 268.71 233.155L283.624 236.893C297.182 240.291 310.99 232.319 314.825 218.879L319.045 204.094Z" stroke="white" stroke-width="2"/>
</svg>
