<svg width="572" height="555" viewBox="0 0 572 555" fill="none" xmlns="http://www.w3.org/2000/svg">
<path opacity="0.0526316" d="M44.4418 447.597C56.511 463.654 95.0855 490.524 152.83 469.546C225.01 443.323 252.926 373.813 317.348 337.771C364.896 311.169 492.66 271.239 566.127 315.363" stroke="white" stroke-width="3"/>
<path opacity="0.105263" d="M32.5373 413.935C42.8619 431.166 78.4164 461.92 138.037 447.093C212.563 428.558 247.592 362.347 315.429 333.237C365.497 311.751 496.735 285.395 565.187 336.956" stroke="white" stroke-width="3"/>
<path opacity="0.157895" d="M23.5437 379.819C32.0107 398.035 64.1557 432.337 125 423.823C201.055 413.18 242.813 350.994 313.321 329.133C365.36 312.999 498.635 300.505 561.322 358.939" stroke="white" stroke-width="3"/>
<path opacity="0.210526" d="M17.4927 345.556C24.0093 364.557 52.3927 402.031 113.793 399.923C190.544 397.289 238.574 339.808 310.98 325.437C364.422 314.831 498.272 316.336 554.507 381.003" stroke="white" stroke-width="3"/>
<path opacity="0.263158" d="M14.3835 311.453C18.8782 331.031 43.1889 371.267 104.474 375.589C181.079 380.992 234.854 328.846 308.366 322.123C362.623 317.161 495.583 332.649 544.751 402.839" stroke="white" stroke-width="3"/>
<path opacity="0.315789" d="M14.1832 277.818C16.6069 297.759 36.5786 340.316 97.0757 351.02C172.697 364.401 231.628 318.161 305.44 319.159C359.919 319.896 490.531 349.197 532.093 424.142" stroke="white" stroke-width="3"/>
<path opacity="0.368421" d="M16.8269 244.952C17.153 265.037 32.5669 309.448 91.6137 326.418C165.422 347.629 228.864 307.803 302.167 316.511C356.27 322.938 483.104 365.732 516.604 444.611" stroke="white" stroke-width="3"/>
<path opacity="0.421053" d="M22.2187 213.149C20.4436 233.158 31.1308 278.937 88.0803 301.986C159.267 330.796 226.524 297.82 298.516 314.142C351.651 326.189 473.317 382.006 498.388 463.955" stroke="white" stroke-width="3"/>
<path opacity="0.473684" d="M30.2325 182.69C26.3757 202.403 32.2191 249.049 86.4474 277.924C154.233 314.017 224.568 288.252 294.459 312.01C346.044 329.545 461.209 397.774 477.577 481.895" stroke="white" stroke-width="3"/>
<path opacity="0.526316" d="M40.7136 153.84C34.8172 173.042 35.7528 220.043 86.6659 254.429C150.307 297.41 222.951 279.138 289.975 310.072C339.445 332.903 446.847 412.796 454.332 498.166" stroke="white" stroke-width="3"/>
<path opacity="0.578947" d="M53.4799 126.849C45.6087 145.33 41.6262 192.171 88.6661 231.69C147.466 281.089 221.621 270.51 285.046 308.28C331.857 336.157 430.32 426.839 428.841 512.524" stroke="white" stroke-width="3"/>
<path opacity="0.631579" d="M68.3247 101.948C58.5648 119.504 49.7079 165.673 92.3593 209.892C145.673 265.166 220.528 262.397 279.657 306.589C323.298 339.207 411.743 439.684 401.315 524.746" stroke="white" stroke-width="3"/>
<path opacity="0.684211" d="M85.0183 79.34C73.4767 95.7804 59.8424 140.77 97.638 189.205C144.882 249.75 219.617 254.82 273.802 304.951C313.795 341.952 391.252 451.123 371.991 534.629" stroke="white" stroke-width="3"/>
<path opacity="0.736842" d="M103.311 59.2061C90.1139 74.35 71.8517 117.668 104.377 169.789C145.034 234.94 218.829 247.794 267.478 303.315C303.384 344.293 369.005 460.963 341.12 541.998" stroke="white" stroke-width="3"/>
<path opacity="0.789474" d="M122.935 41.7016C108.227 55.3831 85.537 96.5548 112.436 151.79C146.06 220.834 218.108 241.331 260.686 301.633C292.112 346.14 345.179 469.03 308.976 546.706" stroke="white" stroke-width="3"/>
<path opacity="0.842105" d="M143.608 26.949C127.551 39.0182 100.681 77.5926 121.66 135.337C147.883 207.517 217.393 235.433 253.434 299.855C280.036 347.403 319.966 475.168 275.843 548.634" stroke="white" stroke-width="3"/>
<path opacity="0.894737" d="M165.037 15.0443C147.807 25.369 117.052 60.9235 131.88 120.544C150.414 195.07 216.625 230.099 245.736 297.936C267.221 348.004 293.578 479.242 242.017 547.694" stroke="white" stroke-width="3"/>
<path opacity="0.947368" d="M186.921 6.05079C168.705 14.5178 134.403 46.6628 142.917 107.507C153.56 183.562 215.747 225.32 237.607 295.828C253.741 347.868 266.236 481.142 207.802 543.829" stroke="white" stroke-width="3"/>
<path d="M208.952 0C189.951 6.51658 152.476 34.8999 154.584 96.3006C157.219 173.051 214.7 221.081 229.07 293.488C239.677 346.929 238.171 480.779 173.505 537.015" stroke="white" stroke-width="3"/>
</svg>
